<?xml version="1.0" encoding="UTF-8"?>
<svg width="22px" height="22px" viewBox="0 0 22 22" version="1.1" xmlns="http://www.w3.org/2000/svg" xmlns:xlink="http://www.w3.org/1999/xlink">
    <!-- Generator: Sketch 49.2 (51160) - http://www.bohemiancoding.com/sketch -->
    <title>Shape</title>
    <desc>Created with Sketch.</desc>
    <defs></defs>
    <g id="Discovery" stroke="none" stroke-width="1" fill="none" fill-rule="evenodd">
        <path d="M10.9017857,0 C4.87797619,0 0,4.928 0,11 C0,17.072 4.87797619,22 10.9017857,22 C16.9365079,22 21.8253968,17.072 21.8253968,11 C21.8253968,4.928 16.9365079,0 10.9017857,0 Z M10.9126984,19.8 C6.08928571,19.8 2.18253968,15.862 2.18253968,11 C2.18253968,6.138 6.08928571,2.2 10.9126984,2.2 C15.7361111,2.2 19.6428571,6.138 19.6428571,11 C19.6428571,15.862 15.7361111,19.8 10.9126984,19.8 Z M14.7321429,9.9 C15.6378968,9.9 16.3690476,9.163 16.3690476,8.25 C16.3690476,7.337 15.6378968,6.6 14.7321429,6.6 C13.8263889,6.6 13.0952381,7.337 13.0952381,8.25 C13.0952381,9.163 13.8263889,9.9 14.7321429,9.9 Z M7.09325397,9.9 C7.99900794,9.9 8.73015873,9.163 8.73015873,8.25 C8.73015873,7.337 7.99900794,6.6 7.09325397,6.6 C6.1875,6.6 5.45634921,7.337 5.45634921,8.25 C5.45634921,9.163 6.1875,9.9 7.09325397,9.9 Z M10.9126984,17.05 C13.1279762,17.05 15.0595238,15.829 16.0962302,14.025 C16.3035714,13.662 16.0416667,13.2 15.6160714,13.2 L6.2093254,13.2 C5.79464286,13.2 5.5218254,13.662 5.72916667,14.025 C6.76587302,15.829 8.69742063,17.05 10.9126984,17.05 Z" id="Shape" fill="#939BA1" fill-rule="nonzero"></path>
    </g>
</svg>